<svg width="49" height="48" viewBox="0 0 49 48" fill="none" xmlns="http://www.w3.org/2000/svg">
<path d="M24.5123 0C37.924 0 48.7298 10.5494 48.9948 23.48C49.2745 37.0023 38.2037 47.8836 24.7184 47.9991C11.1301 48.1145 0.0887026 37.4641 0.000371324 24.2737C-0.0732381 10.7514 10.8062 0.0288629 24.5123 0ZM32.0646 26.1065C32.0577 26.0889 32.0508 26.0717 32.0441 26.0547C31.9516 25.8215 31.883 25.6484 31.8144 25.5004C30.8869 23.5233 29.9741 21.5462 29.0467 19.5691C27.6628 16.5962 26.2642 13.6233 24.8804 10.636C24.7331 10.3185 24.5712 10.0299 24.159 10.0299C23.7468 10.0299 23.5848 10.3329 23.4376 10.636C23.0696 11.4297 22.7015 12.209 22.3335 12.9883C19.1388 19.8144 15.9442 26.6405 12.7495 33.4666C12.2048 34.6355 11.6454 35.7901 11.1301 36.9734C11.0418 37.1899 11.0859 37.5507 11.2037 37.7672C11.2773 37.9115 11.6012 37.9548 11.822 37.9692C11.984 37.9692 12.1312 37.8393 12.2931 37.7527C16.695 35.2272 21.0968 32.6873 25.4987 30.1618C27.5156 29.0073 29.5325 27.8527 31.5494 26.6694C31.7702 26.525 31.9027 26.2797 32.0646 26.1065ZM37.7326 37.8682C37.7031 37.7816 37.659 37.6517 37.6001 37.5218C37.394 37.0744 37.1879 36.6271 36.967 36.1797C35.7157 33.4954 34.4643 30.8112 33.1982 28.1269C32.9185 27.5352 32.5799 27.4342 32.0057 27.7662C30.1066 28.8918 28.1928 30.003 26.3084 31.1431C25.5723 31.5905 25.5723 32.0812 26.3084 32.4997C29.1791 34.1593 32.0646 35.8189 34.9501 37.4641C35.539 37.8105 36.1279 38.1712 36.7462 38.4887C37.2026 38.7485 37.7473 38.431 37.7326 37.8682Z" fill="#4666FF"/>
<path d="M32.0646 26.1065L32.0441 26.0547C31.9516 25.8215 31.883 25.6484 31.8144 25.5004C30.8869 23.5233 29.9741 21.5462 29.0467 19.5691C27.6628 16.5962 26.2642 13.6233 24.8804 10.636C24.7331 10.3185 24.5712 10.0299 24.159 10.0299C23.7468 10.0299 23.5848 10.3329 23.4376 10.636C23.0696 11.4297 22.7015 12.209 22.3335 12.9883L12.7495 33.4666C12.2048 34.6355 11.6454 35.7901 11.1301 36.9734C11.0418 37.1899 11.0859 37.5507 11.2037 37.7672C11.2773 37.9115 11.6012 37.9548 11.822 37.9692C11.984 37.9692 12.1312 37.8393 12.2931 37.7527C16.695 35.2272 21.0968 32.6873 25.4987 30.1618C27.5156 29.0073 29.5325 27.8527 31.5494 26.6694C31.7702 26.525 31.9027 26.2797 32.0646 26.1065Z" fill="white"/>
<path d="M37.7326 37.8682C37.7031 37.7816 37.659 37.6517 37.6001 37.5218C37.394 37.0744 37.1879 36.6271 36.967 36.1797C35.7157 33.4954 34.4643 30.8112 33.1982 28.1269C32.9185 27.5352 32.5799 27.4342 32.0057 27.7662C30.1066 28.8918 28.1928 30.003 26.3084 31.1431C25.5723 31.5905 25.5723 32.0812 26.3084 32.4997C29.1791 34.1593 32.0646 35.8189 34.9501 37.4641C35.539 37.8105 36.1279 38.1712 36.7462 38.4887C37.2026 38.7485 37.7473 38.431 37.7326 37.8682Z" fill="white"/>
</svg>
